<?xml version="1.0" encoding="utf-8"?>
<!-- Generator: Adobe Illustrator 27.2.0, SVG Export Plug-In . SVG Version: 6.00 Build 0)  -->
<svg version="1.1" id="Capa_1" xmlns="http://www.w3.org/2000/svg" xmlns:xlink="http://www.w3.org/1999/xlink" x="0px" y="0px"
	 viewBox="0 0 75 81" style="enable-background:new 0 0 75 81;" xml:space="preserve">
<style type="text/css">
	.st0{fill:#FFFFFF;}
	.st1{fill:#FD0807;}
	.st2{enable-background:new    ;}
</style>
<polygon class="st0" points="18.5,42.8 18.5,49.8 17,49.8 17,44.9 14.8,48.4 12.7,44.9 12.7,49.8 11.2,49.8 11.2,42.8 13.2,42.8 
	14.8,45.6 16.5,42.8 "/>
<rect x="19.8" y="42.8" class="st0" width="1.6" height="7"/>
<polygon class="st0" points="24,44.3 22.1,44.3 22.1,42.8 27.4,42.8 27.4,44.3 25.5,44.3 25.5,49.8 24,49.8 "/>
<path class="st0" d="M28,49.7v-1.4c0.3,0.1,1.1,0.2,2.1,0.2c0.8,0,1.2-0.1,1.2-0.6s-0.4-0.6-1.5-1.1s-1.9-0.9-1.9-2.1
	c0-1.4,0.9-1.9,2.6-1.9c0.9,0,1.6,0.1,1.9,0.1v1.4c-0.4,0-1.1-0.1-1.9-0.1c-0.9,0-1.1,0.1-1.1,0.5s0.5,0.6,1.3,0.9
	c1.1,0.5,2.1,0.9,2.1,2.3s-0.9,2-2.7,2C29.3,49.8,28.7,49.8,28,49.7"/>
<path class="st0" d="M33.8,47.4v-4.7h1.6v4.6c0,0.8,0.5,1.1,1.2,1.1c0.8,0,1.2-0.3,1.2-1.1v-4.6h1.6v4.7c0,1.6-1.1,2.4-2.8,2.4
	C34.9,49.8,33.8,49.1,33.8,47.4"/>
<path class="st0" d="M40.7,42.8h3.1c1.4,0,2.2,0.5,2.2,1.8c0,1-0.6,1.3-1.1,1.5c0.6,0.2,1.3,0.6,1.3,1.7c0,1.2-0.8,1.9-2.3,1.9h-3.2
	V42.8L40.7,42.8z M43.5,45.6c0.6,0,0.9-0.4,0.9-0.8c0-0.6-0.3-0.7-0.9-0.7h-1.3v1.5H43.5z M43.6,48.5c0.6,0,0.9-0.2,0.9-0.9
	c0-0.5-0.2-0.8-0.8-0.8h-1.4v1.6h1.3V48.5z"/>
<rect x="47.1" y="42.8" class="st0" width="1.6" height="7"/>
<path class="st0" d="M49.7,49.7v-1.4c0.3,0.1,1.1,0.2,2.1,0.2c0.8,0,1.2-0.1,1.2-0.6s-0.4-0.6-1.5-1.1s-1.9-0.9-1.9-2.1
	c0-1.4,0.9-1.9,2.6-1.9c0.9,0,1.5,0.1,1.9,0.1v1.4c-0.4,0-1.1-0.1-1.9-0.1c-0.9,0-1.1,0.1-1.1,0.5s0.5,0.6,1.3,0.9
	c1.1,0.5,2.1,0.9,2.1,2.3s-0.9,2-2.7,2C51.1,49.8,50.4,49.8,49.7,49.7"/>
<polygon class="st0" points="61.1,42.8 61.1,49.8 59.4,49.8 59.4,47 57,47 57,49.8 55.4,49.8 55.4,42.8 57,42.8 57,45.6 59.4,45.6 
	59.4,42.8 "/>
<rect x="62.3" y="42.8" class="st0" width="1.6" height="7"/>
<polygon class="st0" points="25.8,52.2 25.8,59.2 24.3,59.2 24.3,54.3 22.2,57.8 20,54.3 20,59.2 18.5,59.2 18.5,52.2 20.5,52.2 
	22.2,55 23.8,52.2 "/>
<path class="st0" d="M26.9,55.7c0-2.5,0.9-3.6,3-3.6s3,1.1,3,3.6s-0.9,3.6-3,3.6C27.9,59.3,26.9,58.2,26.9,55.7 M31.3,55.7
	c0-1.4-0.3-2.1-1.4-2.1s-1.4,0.7-1.4,2.1c0,1.4,0.3,2.1,1.4,2.1C31.1,57.9,31.3,57.2,31.3,55.7"/>
<polygon class="st0" points="35.1,53.6 33.2,53.6 33.2,52.2 38.6,52.2 38.6,53.6 36.6,53.6 36.6,59.2 35.1,59.2 "/>
<path class="st0" d="M38.8,55.7c0-2.5,0.9-3.6,3-3.6s3,1.1,3,3.6s-0.9,3.6-3,3.6S38.8,58.2,38.8,55.7 M43.2,55.7
	c0-1.4-0.2-2.1-1.4-2.1c-1.1,0-1.4,0.7-1.4,2.1c0,1.4,0.2,2.1,1.4,2.1C42.9,57.9,43.2,57.2,43.2,55.7"/>
<path class="st0" d="M45.9,52.2h2.8c1.5,0,2.4,0.6,2.4,2.3c0,1.1-0.6,1.8-1.4,2l1.7,2.8h-1.8l-1.5-2.5h-0.7v2.5h-1.6L45.9,52.2
	L45.9,52.2z M48.7,55.4c0.7,0,0.9-0.4,0.9-0.9c0-0.6-0.2-0.9-0.9-0.9h-1.1v1.8C47.6,55.4,48.7,55.4,48.7,55.4z"/>
<path class="st0" d="M52.1,59.1v-1.4c0.4,0.1,1.1,0.2,2.1,0.2c0.8,0,1.2-0.1,1.2-0.6s-0.4-0.6-1.5-1.1S52,55.3,52,54.1
	c0-1.4,0.9-2,2.6-2c0.9,0,1.6,0.1,1.9,0.1v1.4c-0.4-0.1-1.1-0.1-1.9-0.1c-0.9,0-1.1,0.1-1.1,0.5s0.5,0.6,1.3,0.9
	c1.1,0.5,2.1,0.9,2.1,2.3c0,1.4-0.9,2-2.7,2C53.5,59.3,52.7,59.2,52.1,59.1"/>
<polygon class="st1" points="30.8,14.3 37.4,25.9 44.2,14.3 37.4,2.8 "/>
<polygon class="st1" points="50.8,25.9 37.4,25.9 44.2,37.5 57.5,37.5 "/>
<polygon class="st1" points="24,25.9 37.4,25.9 30.8,37.5 17.4,37.5 "/>
<g class="st2">
	<path class="st0" d="M4.4,65.3c0.3,0.2,0.6,0.4,0.8,0.8c0.2,0.4,0.3,0.9,0.3,1.6c0,0.7-0.1,1.2-0.3,1.6c-0.2,0.4-0.4,0.7-0.8,0.8
		s-0.8,0.2-1.3,0.2H1.2v-5.3h1.8C3.6,65.1,4,65.1,4.4,65.3z M3.9,69.3c0.2-0.1,0.3-0.3,0.4-0.6c0.1-0.3,0.1-0.6,0.1-1
		c0-0.4,0-0.8-0.1-1s-0.2-0.4-0.4-0.5s-0.5-0.2-0.8-0.2H2.2v3.6H3C3.4,69.5,3.7,69.4,3.9,69.3z"/>
	<path class="st0" d="M6.4,66.2h0.9v0.5c0.2-0.1,0.4-0.2,0.6-0.4c0.3-0.1,0.6-0.2,0.9-0.2V67c-0.3,0-0.6,0.1-0.8,0.1
		s-0.5,0.1-0.6,0.2v3H6.4V66.2z"/>
	<path class="st0" d="M9.4,64.8h1v0.9h-1V64.8z M9.5,66.2h0.9v4.1H9.5V66.2z"/>
	<path class="st0" d="M11.1,66.2h1l1.1,3.2l1.1-3.2h1l-1.5,4.1h-1.1L11.1,66.2z"/>
	<path class="st0" d="M16.4,70.2c-0.3-0.1-0.5-0.4-0.6-0.7s-0.2-0.7-0.2-1.3c0-0.7,0.2-1.3,0.5-1.6c0.3-0.3,0.8-0.5,1.4-0.5
		c0.4,0,0.8,0.1,1,0.2s0.5,0.3,0.6,0.6c0.1,0.3,0.2,0.7,0.2,1.2c0,0.1,0,0.2,0,0.5h-2.7c0,0.3,0.1,0.5,0.1,0.6
		c0.1,0.1,0.2,0.2,0.4,0.3c0.2,0.1,0.4,0.1,0.7,0.1c0.4,0,0.9-0.1,1.3-0.2v0.8c-0.4,0.2-0.8,0.2-1.4,0.2
		C17.1,70.4,16.7,70.4,16.4,70.2z M18.3,67.9c0-0.4-0.1-0.6-0.2-0.8c-0.1-0.2-0.4-0.2-0.7-0.2c-0.3,0-0.6,0.1-0.7,0.2
		c-0.1,0.2-0.2,0.4-0.2,0.7H18.3z"/>
	<path class="st0" d="M25.7,66.2l-1.3,3.4c-0.2,0.6-0.5,1-0.8,1.4s-0.8,0.7-1.3,1L22,71.3c0.6-0.4,1-0.7,1.2-1.1l-1.5-4h1l1.1,3.1
		l1-3.1H25.7z"/>
	<path class="st0" d="M26.7,69.9c-0.3-0.3-0.5-0.9-0.5-1.7c0-0.8,0.2-1.3,0.5-1.7c0.3-0.3,0.8-0.5,1.5-0.5c0.7,0,1.2,0.2,1.5,0.5
		c0.3,0.3,0.5,0.9,0.5,1.7c0,0.8-0.2,1.3-0.5,1.7c-0.3,0.3-0.8,0.5-1.5,0.5S27,70.3,26.7,69.9z M28.7,69.5c0.1-0.1,0.3-0.2,0.3-0.4
		c0.1-0.2,0.1-0.5,0.1-0.8c0-0.4,0-0.6-0.1-0.8s-0.2-0.3-0.3-0.4S28.4,67,28.1,67s-0.4,0-0.6,0.1s-0.3,0.2-0.3,0.4s-0.1,0.5-0.1,0.8
		c0,0.4,0,0.6,0.1,0.8c0.1,0.2,0.2,0.3,0.3,0.4c0.1,0.1,0.3,0.1,0.6,0.1C28.4,69.6,28.6,69.6,28.7,69.5z"/>
	<path class="st0" d="M31.3,70.1c-0.2-0.2-0.3-0.5-0.3-0.9v-3h0.9v2.7c0,0.2,0.1,0.4,0.2,0.5c0.1,0.1,0.3,0.2,0.6,0.2
		c0.2,0,0.4,0,0.5-0.1c0.2,0,0.3-0.1,0.4-0.2v-3.2h0.9v4.1h-0.8L33.8,70c-0.4,0.3-0.8,0.4-1.4,0.4C31.9,70.4,31.5,70.3,31.3,70.1z"
		/>
	<path class="st0" d="M35.7,66.2h0.9v0.5c0.2-0.1,0.4-0.2,0.6-0.4c0.3-0.1,0.6-0.2,0.9-0.2V67c-0.3,0-0.6,0.1-0.8,0.1
		s-0.5,0.1-0.6,0.2v3h-0.9V66.2z"/>
	<path class="st0" d="M44,69.1h-2.2l-0.4,1.2h-1l1.9-5.3h1.2l1.9,5.3h-1L44,69.1z M43.7,68.3L42.9,66l-0.8,2.3H43.7z"/>
	<path class="st0" d="M52,66.4c0.2,0.2,0.3,0.5,0.3,0.9v3h-0.9v-2.7c0-0.2-0.1-0.4-0.2-0.5C51,67,50.8,67,50.5,67
		c-0.3,0-0.6,0.1-0.9,0.2c0,0,0,0.1,0,0.2v3h-0.9v-2.7c0-0.2-0.1-0.4-0.2-0.5C48.4,67,48.2,67,47.9,67c-0.3,0-0.6,0.1-0.9,0.2v3.2
		h-0.9v-4.1h0.9v0.3c0.4-0.3,0.8-0.4,1.3-0.4c0.3,0,0.5,0,0.7,0.1c0.2,0.1,0.3,0.2,0.4,0.3c0.4-0.3,0.9-0.4,1.5-0.4
		C51.4,66.1,51.8,66.2,52,66.4z"/>
	<path class="st0" d="M56.8,66.7c0.3,0.3,0.4,0.9,0.4,1.6c0,0.8-0.2,1.3-0.5,1.7c-0.3,0.3-0.7,0.5-1.3,0.5c-0.3,0-0.5,0-0.7-0.1
		c-0.2-0.1-0.4-0.2-0.5-0.3l-0.1,0.3h-0.8v-5.6h0.9v1.7c0.3-0.2,0.7-0.3,1.2-0.3C56.1,66.1,56.5,66.3,56.8,66.7z M55.8,69.5
		c0.2-0.1,0.3-0.2,0.3-0.4c0.1-0.2,0.1-0.4,0.1-0.8s0-0.6-0.1-0.8c-0.1-0.2-0.2-0.3-0.3-0.4C55.7,67,55.5,67,55.2,67
		c-0.3,0-0.6,0.1-0.9,0.2v2.3c0.2,0.1,0.5,0.2,0.9,0.2C55.5,69.6,55.7,69.6,55.8,69.5z"/>
	<path class="st0" d="M58.1,64.8h1v0.9h-1V64.8z M58.1,66.2H59v4.1h-0.9V66.2z"/>
	<path class="st0" d="M60.8,70.2c-0.2-0.2-0.3-0.5-0.3-0.9V67h-0.8v-0.8h0.8v-0.9l0.9-0.3v1.2h1.3V67h-1.3v2.1c0,0.2,0,0.3,0.1,0.4
		c0.1,0.1,0.2,0.1,0.4,0.1c0.2,0,0.5,0,0.7-0.1v0.8c-0.2,0.1-0.6,0.1-1,0.1C61.3,70.4,61,70.3,60.8,70.2z"/>
	<path class="st0" d="M63.5,64.8h1v0.9h-1V64.8z M63.5,66.2h0.9v4.1h-0.9V66.2z"/>
	<path class="st0" d="M65.8,69.9c-0.3-0.3-0.5-0.9-0.5-1.7c0-0.8,0.2-1.3,0.5-1.7c0.3-0.3,0.8-0.5,1.5-0.5c0.7,0,1.2,0.2,1.5,0.5
		c0.3,0.3,0.5,0.9,0.5,1.7c0,0.8-0.2,1.3-0.5,1.7c-0.3,0.3-0.8,0.5-1.5,0.5C66.6,70.4,66.2,70.3,65.8,69.9z M67.9,69.5
		c0.1-0.1,0.3-0.2,0.3-0.4c0.1-0.2,0.1-0.5,0.1-0.8c0-0.4,0-0.6-0.1-0.8s-0.2-0.3-0.3-0.4C67.7,67,67.5,67,67.3,67
		c-0.2,0-0.4,0-0.6,0.1s-0.3,0.2-0.3,0.4s-0.1,0.5-0.1,0.8c0,0.4,0,0.6,0.1,0.8c0.1,0.2,0.2,0.3,0.3,0.4c0.1,0.1,0.3,0.1,0.6,0.1
		C67.5,69.6,67.7,69.6,67.9,69.5z"/>
	<path class="st0" d="M70.2,66.2h0.9v0.3c0.1-0.1,0.3-0.2,0.6-0.3c0.2-0.1,0.5-0.1,0.8-0.1c0.5,0,0.9,0.1,1.1,0.3
		c0.2,0.2,0.3,0.5,0.3,0.9v3h-0.9v-2.7c0-0.2-0.1-0.4-0.2-0.5S72.4,67,72.1,67c-0.2,0-0.4,0-0.6,0.1c-0.2,0-0.3,0.1-0.4,0.1v3.2
		h-0.9V66.2z"/>
</g>
</svg>
